HIERARCHY
ROOT hip
{
  OFFSET 26.2014 78.223 14.9972
  CHANNELS 6 Xposition Yposition Zposition Zrotation Xrotation Yrotation
  JOINT abdomen
  {
    OFFSET 0 20.6881 -0.73152
    CHANNELS 3 Zrotation Xrotation Yrotation
    JOINT chest
    {
      OFFSET 0 11.7043 -0.48768
      CHANNELS 3 Zrotation Xrotation Yrotation
      JOINT neck
      {
        OFFSET 0 22.1894 -2.19456
        CHANNELS 3 Zrotation Xrotation Yrotation
        JOINT head
        {
          OFFSET -0.24384 7.07133 1.2192
          CHANNELS 3 Zrotation Xrotation Yrotation
          JOINT leftEye
          {
            OFFSET 4.14528 8.04674 8.04672
            CHANNELS 3 Zrotation Xrotation Yrotation
            End Site
            {
              OFFSET 1 0 0
            }
          }
          JOINT rightEye
          {
            OFFSET -3.6576 8.04674 8.04672
            CHANNELS 3 Zrotation Xrotation Yrotation
            End Site
            {
              OFFSET 1 0 0
            }
          }
        }
      }
      JOINT rCollar
      {
        OFFSET -2.68224 19.2634 -4.8768
        CHANNELS 3 Zrotation Xrotation Yrotation
        JOINT rShldr
        {
          OFFSET -8.77824 -1.95073 1.46304
          CHANNELS 3 Zrotation Xrotation Yrotation
          JOINT rForeArm
          {
            OFFSET -28.1742 -1.7115 0.48768
            CHANNELS 3 Zrotation Xrotation Yrotation
            JOINT rHand
            {
              OFFSET -22.5879 0.773209 7.07136
              CHANNELS 3 Zrotation Xrotation Yrotation
              JOINT rThumb1
              {
                OFFSET -1.2192 -0.487915 3.41376
                CHANNELS 3 Zrotation Xrotation Yrotation
                JOINT rThumb2
                {
                  OFFSET -3.37035 -0.52449 3.41376
                  CHANNELS 3 Zrotation Xrotation Yrotation
                  End Site
                  {
                    OFFSET -1.78271 -1.18214 1.43049
                  }
                }
              }
              JOINT rIndex1
              {
                OFFSET -7.75947 0.938293 5.60832
                CHANNELS 3 Zrotation Xrotation Yrotation
                JOINT rIndex2
                {
                  OFFSET -2.54057 -0.884171 1.56538
                  CHANNELS 3 Zrotation Xrotation Yrotation
                  End Site
                  {
                    OFFSET -1.62519 -0.234802 1.16502
                  }
                }
              }
              JOINT rMid1
              {
                OFFSET -8.24714 1.18213 3.41376
                CHANNELS 3 Zrotation Xrotation Yrotation
                JOINT rMid2
                {
                  OFFSET -3.10165 -0.590103 1.0647
                  CHANNELS 3 Zrotation Xrotation Yrotation
                  End Site
                  {
                    OFFSET -2.48547 -0.328903 0.83742
                  }
                }
              }
              JOINT rRing1
              {
                OFFSET -8.82822 0.546677 1.51678
                CHANNELS 3 Zrotation Xrotation Yrotation
                JOINT rRing2
                {
                  OFFSET -2.60934 -0.819778 -0.0198488
                  CHANNELS 3 Zrotation Xrotation Yrotation
                  End Site
                  {
                    OFFSET -2.33842 -0.294052 0.168128
                  }
                }
              }
              JOINT rPinky1
              {
                OFFSET -8.27202 -0.0477905 -0.4584
                CHANNELS 3 Zrotation Xrotation Yrotation
                JOINT rPinky2
                {
                  OFFSET -1.82734 -0.647385 -0.700984
                  CHANNELS 3 Zrotation Xrotation Yrotation
                  End Site
                  {
                    OFFSET -1.69225 -0.51767 -0.607171
                  }
                }
              }
            }
          }
        }
      }
      JOINT lCollar
      {
        OFFSET 2.68224 19.2634 -4.8768
        CHANNELS 3 Zrotation Xrotation Yrotation
        JOINT lShldr
        {
          OFFSET 8.77824 -1.95073 1.46304
          CHANNELS 3 Zrotation Xrotation Yrotation
          JOINT lForeArm
          {
            OFFSET 28.1742 -1.7115 0.48768
            CHANNELS 3 Zrotation Xrotation Yrotation
            JOINT lHand
            {
              OFFSET 22.5879 0.773209 7.07136
              CHANNELS 3 Zrotation Xrotation Yrotation
              JOINT lThumb1
              {
                OFFSET 1.2192 -0.487915 3.41376
                CHANNELS 3 Zrotation Xrotation Yrotation
                JOINT lThumb2
                {
                  OFFSET 3.37035 -0.52449 3.41376
                  CHANNELS 3 Zrotation Xrotation Yrotation
                  End Site
                  {
                    OFFSET 1.78271 -1.18214 1.43049
                  }
                }
              }
              JOINT lIndex1
              {
                OFFSET 7.75947 0.938293 5.60832
                CHANNELS 3 Zrotation Xrotation Yrotation
                JOINT lIndex2
                {
                  OFFSET 2.54057 -0.884171 1.56538
                  CHANNELS 3 Zrotation Xrotation Yrotation
                  End Site
                  {
                    OFFSET 1.62519 -0.234802 1.16502
                  }
                }
              }
              JOINT lMid1
              {
                OFFSET 8.24714 1.18213 3.41376
                CHANNELS 3 Zrotation Xrotation Yrotation
                JOINT lMid2
                {
                  OFFSET 3.10165 -0.590103 1.0647
                  CHANNELS 3 Zrotation Xrotation Yrotation
                  End Site
                  {
                    OFFSET 2.48547 -0.328903 0.83742
                  }
                }
              }
              JOINT lRing1
              {
                OFFSET 8.82822 0.546677 1.51678
                CHANNELS 3 Zrotation Xrotation Yrotation
                JOINT lRing2
                {
                  OFFSET 2.60934 -0.819778 -0.0198488
                  CHANNELS 3 Zrotation Xrotation Yrotation
                  End Site
                  {
                    OFFSET 2.33842 -0.294052 0.168128
                  }
                }
              }
              JOINT lPinky1
              {
                OFFSET 8.27202 -0.0477905 -0.4584
                CHANNELS 3 Zrotation Xrotation Yrotation
                JOINT lPinky2
                {
                  OFFSET 1.82734 -0.647385 -0.700984
                  CHANNELS 3 Zrotation Xrotation Yrotation
                  End Site
                  {
                    OFFSET 1.69225 -0.51767 -0.607171
                  }
                }
              }
            }
          }
        }
      }
    }
  }
  JOINT rButtock
  {
    OFFSET -8.77824 4.35084 1.2192
    CHANNELS 3 Zrotation Xrotation Yrotation
    JOINT rThigh
    {
      OFFSET 0 -1.70687 -2.19456
      CHANNELS 3 Zrotation Xrotation Yrotation
      JOINT rShin
      {
        OFFSET 0 -36.8199 0.73152
        CHANNELS 3 Zrotation Xrotation Yrotation
        JOINT rFoot
        {
          OFFSET 0.73152 -45.1104 -5.12064
          CHANNELS 3 Zrotation Xrotation Yrotation
          End Site
          {
            OFFSET -1.1221 -3.69964 12.103
          }
        }
      }
    }
  }
  JOINT lButtock
  {
    OFFSET 8.77824 4.35084 1.2192
    CHANNELS 3 Zrotation Xrotation Yrotation
    JOINT lThigh
    {
      OFFSET 0 -1.70687 -2.19456
      CHANNELS 3 Zrotation Xrotation Yrotation
      JOINT lShin
      {
        OFFSET 0 -36.8199 0.73152
        CHANNELS 3 Zrotation Xrotation Yrotation
        JOINT lFoot
        {
          OFFSET -0.73152 -45.1104 -5.12064
          CHANNELS 3 Zrotation Xrotation Yrotation
          End Site
          {
            OFFSET 1.1221 -3.69964 12.103
          }
        }
      }
    }
  }
}
MOTION
Frames:	6
Frame Time:	0.00833333
25.1706 78.5181 16.4422 -4.39285 6.90152 -10.9357 3.73554 25.5181 -2.42054 -0.808054 -7.08177 -0.0369603 -1.09326 0.0251872 -0.673634 -1.90252 24.6666 -0.992627 -0 0 0 -0 0 0 -1.86947e-013 -1.57106e-013 -9.51022e-014 28.7765 -6.81755 -24.1924 15.7004 -8.41182 -29.0424 -8.50358e-005 0.254925 0.0358277 -1.01991e-009 -2.37976e-009 -1.17561e-009 -1.7621e-009 -4.11928e-009 -2.03405e-009 -1.0199e-009 -2.37976e-009 -1.17561e-009 7.73091 5.47488 0.417314 -1.01991e-009 -2.37976e-009 -1.1756e-009 2.90554 0.965183 0.102902 -1.0199e-009 -2.37976e-009 -1.17561e-009 10.2786 0.731801 0.0259123 -1.01991e-009 -2.37976e-009 -1.1756e-009 2.22167 -0.733487 -0.20892 -1.87029e-013 -1.57123e-013 -9.54318e-014 -21.7904 -9.40516 26.6263 13.0241 -6.19195 -23.6096 0.326949 -16.0555 2.31806 -2.22336e-009 -1.20175e-009 -3.09634e-010 -3.84077e-009 -2.07907e-009 -5.58739e-010 -2.22337e-009 -1.20175e-009 -3.09619e-010 -7.73091 5.47488 -0.417314 -2.22336e-009 -1.20175e-009 -3.09635e-010 -2.90554 0.965183 -0.102902 -2.22337e-009 -1.20175e-009 -3.09632e-010 -10.2786 0.731801 -0.0259123 -2.22336e-009 -1.20175e-009 -3.0964e-010 -2.22167 -0.733487 0.20892 -2.03217e-016 0 -3.88251e-019 -167.03 -73.7649 -173.485 -167.726 84.3779 167.971 -2.75687 54.3133 3.25353 2.03217e-016 0 3.88251e-019 -1.95812 -31.6914 4.05887 0.140978 43.8347 -2.12622 4.63429 -15.7712 11.3129 
25.1748 78.5099 16.4211 -4.45434 6.95088 -11.0196 3.88665 25.4841 -2.40627 -0.859013 -7.06729 -0.0271577 -1.22853 -0.0450961 -0.6779 -1.67246 24.7526 -1.01292 -0 0 0 -0 0 0 -2.44868e-013 -2.00366e-013 -1.14301e-013 28.7301 -6.89512 -24.0675 15.7332 -8.44167 -29.1114 -8.08043e-005 0.256677 0.0360739 -1.22406e-009 -3.22372e-009 -1.53367e-009 -2.11422e-009 -5.58028e-009 -2.65395e-009 -1.22406e-009 -3.22372e-009 -1.53368e-009 7.73091 5.47488 0.417314 -1.22406e-009 -3.22372e-009 -1.53367e-009 2.90554 0.965183 0.102902 -1.22405e-009 -3.22372e-009 -1.53367e-009 10.2786 0.731801 0.0259123 -1.22407e-009 -3.22372e-009 -1.53367e-009 2.22167 -0.733487 -0.20892 -2.44953e-013 -2.00384e-013 -1.14649e-013 -21.8089 -9.42662 26.6358 13.0389 -6.20454 -23.6397 0.331644 -16.166 2.3349 -2.77936e-009 -1.68463e-009 -4.20622e-010 -4.80113e-009 -2.9151e-009 -7.56054e-010 -2.77937e-009 -1.68463e-009 -4.20606e-010 -7.73091 5.47488 -0.417314 -2.77936e-009 -1.68463e-009 -4.20622e-010 -2.90554 0.965183 -0.102902 -2.77937e-009 -1.68463e-009 -4.2062e-010 -10.2786 0.731801 -0.0259123 -2.77936e-009 -1.68463e-009 -4.20628e-010 -2.22167 -0.733487 0.20892 -2.03217e-016 0 -3.88251e-019 -167.266 -73.7552 -173.778 -167.697 84.3897 167.939 -2.69541 54.2531 3.17405 2.03217e-016 0 3.88251e-019 -1.92816 -31.7565 3.97895 0.143157 43.9104 -2.12603 4.68342 -15.7408 11.4752 
25.1699 78.4999 16.4055 -4.43617 6.97622 -11.146 3.9166 25.497 -2.33381 -0.874554 -7.10896 -0.00633716 -1.24544 -0.0960755 -0.668415 -1.74592 24.8165 -0.971776 -0 0 0 -0 0 0 -2.09651e-013 -1.64138e-013 -1.62855e-013 28.6746 -6.86359 -23.9451 15.7473 -8.45447 -29.141 -7.74162e-005 0.249792 0.0351062 -1.16363e-009 -2.53301e-009 -1.50396e-009 -2.01034e-009 -4.38472e-009 -2.60197e-009 -1.16363e-009 -2.53301e-009 -1.50397e-009 7.73091 5.47488 0.417314 -1.16363e-009 -2.53301e-009 -1.50395e-009 2.90554 0.965183 0.102902 -1.16362e-009 -2.53301e-009 -1.50396e-009 10.2786 0.731801 0.0259123 -1.16363e-009 -2.53301e-009 -1.50395e-009 2.22167 -0.733487 -0.20892 -2.09723e-013 -1.64155e-013 -1.63152e-013 -21.8319 -9.44279 26.6104 13.0289 -6.19742 -23.6203 0.33445 -16.2316 2.34491 -2.44643e-009 -8.74818e-010 -6.67862e-010 -4.22024e-009 -1.51039e-009 -1.18153e-009 -2.44643e-009 -8.74816e-010 -6.67845e-010 -7.73091 5.47488 -0.417314 -2.44643e-009 -8.74816e-010 -6.67861e-010 -2.90554 0.965183 -0.102902 -2.44643e-009 -8.74817e-010 -6.6786e-010 -10.2786 0.731801 -0.0259123 -2.44643e-009 -8.74816e-010 -6.67868e-010 -2.22167 -0.733487 0.20892 -2.03217e-016 0 -3.88251e-019 -167.692 -73.7204 -174.171 -167.703 84.3832 167.933 -2.40151 54.257 2.78576 2.03217e-016 0 3.88251e-019 -1.96733 -31.8094 3.94723 0.144736 43.9625 -2.1257 4.73534 -15.6683 11.6762 
25.1894 78.4906 16.3949 -4.36365 6.98654 -11.3011 3.86766 25.5371 -2.22635 -0.866993 -7.18261 0.0208192 -1.20009 -0.138915 -0.651152 -1.98972 24.8676 -0.894615 -0 0 0 -0 0 0 -1.17063e-013 -7.83137e-014 -2.34839e-013 28.6109 -6.77272 -23.819 15.7499 -8.45686 -29.1465 -7.49141e-005 0.243024 0.034155 -9.40666e-010 -9.0857e-010 -1.26223e-009 -1.62633e-009 -1.57288e-009 -2.18261e-009 -9.40664e-010 -9.08568e-010 -1.26224e-009 7.73091 5.47488 0.417314 -9.40667e-010 -9.08567e-010 -1.26223e-009 2.90554 0.965183 0.102902 -9.40653e-010 -9.08568e-010 -1.26223e-009 10.2786 0.731801 0.0259123 -9.40672e-010 -9.08566e-010 -1.26223e-009 2.22167 -0.733487 -0.20892 -1.17113e-013 -7.83286e-014 -2.35038e-013 -21.8609 -9.45423 26.5606 13.0025 -6.17743 -23.5682 0.336744 -16.2851 2.35308 -1.57521e-009 7.54483e-010 -1.02274e-009 -2.70563e-009 1.31492e-009 -1.7887e-009 -1.57521e-009 7.54483e-010 -1.02272e-009 -7.73091 5.47488 -0.417314 -1.57521e-009 7.54483e-010 -1.02274e-009 -2.90554 0.965183 -0.102902 -1.57521e-009 7.54483e-010 -1.02274e-009 -10.2786 0.731801 -0.0259123 -1.57521e-009 7.54485e-010 -1.02275e-009 -2.22167 -0.733487 0.20892 -2.03217e-016 0 -3.88251e-019 -168.229 -73.6647 -174.614 -167.742 84.3591 167.956 -1.94335 54.298 2.18005 2.03217e-016 0 3.88251e-019 -2.05656 -31.8519 3.94506 0.145935 44.0004 -2.1254 4.78954 -15.5713 11.9038 
25.2145 78.4822 16.3776 -4.2803 6.98533 -11.4586 3.80142 25.5798 -2.1136 -0.85577 -7.26076 0.0485391 -1.1427 -0.149945 -0.632888 -2.26864 24.8872 -0.812132 -0 0 0 -0 0 0 -1.98045e-014 -1.03775e-015 -3.01456e-013 28.5542 -6.64319 -23.7057 15.7513 -8.45816 -29.1494 -6.84197e-005 0.231546 0.0325419 -6.06276e-010 5.91394e-010 -9.7314e-010 -1.04943e-009 1.02353e-009 -1.68162e-009 -6.06274e-010 5.91396e-010 -9.73149e-010 7.73091 5.47488 0.417314 -6.06278e-010 5.91398e-010 -9.73135e-010 2.90554 0.965183 0.102902 -6.06263e-010 5.91396e-010 -9.73143e-010 10.2786 0.731801 0.0259123 -6.06283e-010 5.914e-010 -9.73143e-010 2.22167 -0.733487 -0.20892 -1.98295e-014 -1.04962e-015 -3.01557e-013 -21.8981 -9.44447 26.5097 12.9651 -6.14904 -23.4944 0.337982 -16.3141 2.35751 -6.57028e-010 2.17005e-009 -1.33404e-009 -1.11107e-009 3.76937e-009 -2.31953e-009 -6.57032e-010 2.17005e-009 -1.33402e-009 -7.73091 5.47488 -0.417314 -6.57029e-010 2.17005e-009 -1.33404e-009 -2.90554 0.965183 -0.102902 -6.57025e-010 2.17005e-009 -1.33404e-009 -10.2786 0.731801 -0.0259123 -6.57023e-010 2.17006e-009 -1.33405e-009 -2.22167 -0.733487 0.20892 -2.03217e-016 0 -3.88251e-019 -168.763 -73.6138 -175.04 -167.783 84.3327 167.98 -1.43633 54.3477 1.51043 2.03217e-016 0 3.88251e-019 -2.15475 -31.8764 3.95265 0.146728 44.0236 -2.12504 4.8416 -15.4754 12.1277 
25.2183 78.4787 16.3225 -4.22966 6.97614 -11.5924 3.77975 25.6009 -2.02541 -0.860406 -7.3159 0.0710405 -1.12354 -0.105493 -0.620401 -2.44729 24.8567 -0.755109 -0 0 0 -0 0 0 2.94248e-014 9.54613e-015 -3.33909e-013 28.5197 -6.49586 -23.6215 15.7617 -8.46772 -29.1711 -5.43597e-005 0.210531 0.0295883 -2.11565e-010 9.08664e-010 -8.01325e-010 -3.6685e-010 1.57281e-009 -1.38474e-009 -2.11562e-010 9.08667e-010 -8.01334e-010 7.73091 5.47488 0.417314 -2.11566e-010 9.08668e-010 -8.01319e-010 2.90554 0.965183 0.102902 -2.11552e-010 9.08667e-010 -8.01327e-010 10.2786 0.731801 0.0259123 -2.11572e-010 9.08671e-010 -8.01328e-010 2.22167 -0.733487 -0.20892 2.94174e-014 9.537e-015 -3.33958e-013 -21.9457 -9.397 26.4811 12.9222 -6.11673 -23.4095 0.337621 -16.3061 2.35628 -1.83205e-010 2.33867e-009 -1.45055e-009 -2.90336e-010 4.06151e-009 -2.51597e-009 -1.83208e-010 2.33867e-009 -1.45053e-009 -7.73091 5.47488 -0.417314 -1.83205e-010 2.33867e-009 -1.45054e-009 -2.90554 0.965183 -0.102902 -1.832e-010 2.33867e-009 -1.45055e-009 -10.2786 0.731801 -0.0259123 -1.83199e-010 2.33868e-009 -1.45055e-009 -2.22167 -0.733487 0.20892 -2.03217e-016 0 -3.88251e-019 -169.179 -73.5939 -175.385 -167.795 84.3195 167.976 -0.998252 54.3811 0.932418 2.03217e-016 0 3.88251e-019 -2.22087 -31.8752 3.95019 0.147091 44.0314 -2.12453 4.88765 -15.4062 12.3176 
